<svg xmlns="http://www.w3.org/2000/svg" viewBox="0 0 500 500" fill="#00006D" aria-label="Pellet">
  <path d="M397.75,106.78h-56.39c-11.07,0-20.04-8.97-20.04-20.04V33.24c0-11.07-8.97-20.04-20.04-20.04H196.68c-11.07,0-20.04,8.97-20.04,20.04v53.51c0,11.07-8.97,20.04-20.04,20.04H103.1c-11.07,0-20.04,8.97-20.04,20.04v105.33c0,11.07,8.97,20.04,20.04,20.04h57.35c11.07,0,20.04,8.97,20.04,20.04v47.75c0,11.07-8.97,20.04-20.04,20.04H103.1c-11.07,0-20.04,8.97-20.04,20.04v106.08c0,11.07,8.97,20.04,20.04,20.04h65.02c11.07,0,20.04-8.97,20.04-20.04v-98.4c0-11.07,8.97-20.04,20.04-20.04h96.94c11.07,0,20.04-8.97,20.04-20.04v-55.43c0-11.07,8.97-20.04,20.04-20.04h52.55c11.07,0,20.04-8.97,20.04-20.04V126.81C417.79,115.75,408.82,106.78,397.75,106.78z M292.66,242.58H208.2c-11.07,0-20.04-8.97-20.04-20.04v-84.22c0-11.07,8.97-20.04,20.04-20.04h84.46c11.07,0,20.04,8.97,20.04,20.04v84.22C312.69,233.61,303.72,242.58,292.66,242.58z"/>
</svg>
