<?xml version="1.0" encoding="UTF-8"?>
<!--
  Pellet mark — vectorized from source bitmap, white on black, centered for icon use.
  Two paths: outer P silhouette + inner counter (hole), composed via even-odd fill.
-->
<svg width="1024" height="1024" viewBox="0 0 1024 1024" xmlns="http://www.w3.org/2000/svg">
  <rect width="1024" height="1024" fill="#000000"/>
  <g transform="translate(220.5645, 102.4000) scale(0.881776)">
    <g transform="translate(-1173.000000,1592.000000) scale(0.100000,-0.100000)" fill="#ffffff" fill-rule="evenodd" stroke="none">
      <path d="M13895 15910 c-3 -5 -14 -10 -24 -10 -43 0 -221 -116 -221 -144 0 -7
-7 -19 -15 -26 -19 -16 -45 -68 -45 -91 0 -10 -4 -21 -10 -24 -6 -4 -10 -212
-10 -590 0 -404 -3 -586 -11 -590 -6 -4 -9 -24 -8 -45 2 -21 -2 -44 -7 -52 -6
-7 -18 -30 -28 -50 -32 -71 -146 -168 -197 -168 -10 0 -21 -4 -24 -10 -4 -6
-218 -10 -610 -10 -392 0 -606 -4 -610 -10 -3 -5 -14 -10 -24 -10 -48 0 -221
-114 -221 -146 0 -6 -7 -17 -15 -24 -67 -56 -65 -8 -65 -1271 0 -761 3 -1160
10 -1164 6 -3 10 -16 10 -29 0 -13 9 -31 20 -41 11 -10 20 -23 20 -29 0 -24
109 -118 175 -151 69 -35 69 -35 676 -35 395 0 610 -4 614 -10 3 -5 30 -10 60
-10 30 0 57 -4 60 -10 3 -5 16 -10 29 -10 13 0 31 -9 41 -20 10 -11 23 -20 30
-20 29 0 115 -127 115 -171 0 -10 5 -21 10 -24 6 -4 10 -196 10 -544 0 -537 0
-537 -34 -605 -54 -107 -150 -186 -226 -186 -14 0 -31 -5 -36 -10 -7 -7 -222
-10 -642 -10 -416 0 -633 -3 -637 -10 -3 -5 -14 -10 -24 -10 -23 0 -75 -26
-91 -45 -7 -8 -18 -15 -24 -15 -50 0 -166 -191 -166 -271 0 -26 -4 -51 -10
-54 -5 -3 -10 -17 -10 -30 0 -13 5 -27 10 -30 7 -4 10 -376 10 -1084 0 -1175
-2 -1135 65 -1191 8 -7 15 -18 15 -24 0 -32 173 -146 221 -146 10 0 21 -5 24
-10 9 -14 1451 -14 1460 0 3 6 17 10 30 10 13 0 27 5 30 10 3 6 16 10 29 10
13 0 31 9 41 20 10 11 23 20 29 20 15 0 106 92 106 106 0 6 9 19 20 29 11 10
20 28 20 41 0 13 5 26 10 29 6 3 10 21 10 40 0 19 5 37 10 40 7 4 10 360 10
1036 0 666 4 1036 10 1049 6 11 15 29 20 40 38 77 90 135 140 156 19 9 43 20
52 25 10 5 33 9 52 9 19 0 38 5 41 10 4 7 355 10 1020 10 665 0 1016 3 1020
10 3 6 14 10 24 10 74 0 261 202 261 281 0 10 5 21 10 24 6 4 10 225 10 630 0
405 4 626 10 630 6 3 10 14 10 24 0 88 174 231 281 231 26 0 51 5 54 10 4 6
206 10 574 10 612 0 628 2 681 65 7 8 18 15 24 15 15 0 86 72 86 87 0 6 7 16
15 23 19 16 45 68 45 91 0 10 5 21 10 24 13 8 14 2268 1 2293 -5 9 -21 42 -35
72 -43 93 -192 220 -257 220 -10 0 -21 5 -24 10 -4 6 -228 10 -640 10 -412 0
-636 4 -640 10 -3 6 -14 10 -24 10 -23 0 -75 26 -91 45 -7 8 -18 15 -24 15
-15 0 -56 42 -56 57 0 6 -7 16 -15 23 -22 18 -45 70 -45 101 0 15 -4 31 -10
34 -6 4 -10 218 -10 610 0 392 -4 606 -10 610 -5 3 -10 14 -10 24 0 73 -203
261 -281 261 -10 0 -21 5 -24 10 -4 7 -388 10 -1120 10 -732 0 -1116 -3 -1120
-10z m2201 -91 c8 -6 20 -9 29 -6 8 4 17 2 20 -3 4 -6 25 -19 48 -29 65 -30
157 -135 157 -179 0 -10 5 -23 10 -28 7 -7 10 -212 10 -612 0 -396 3 -603 10
-607 5 -3 10 -19 10 -34 0 -31 23 -83 45 -101 8 -7 15 -17 15 -23 0 -15 91
-107 106 -107 6 0 17 -7 24 -15 16 -19 68 -45 91 -45 10 0 21 -5 24 -10 4 -7
221 -10 637 -10 420 0 635 -3 642 -10 5 -5 17 -10 26 -10 57 0 169 -88 201
-157 10 -23 23 -44 29 -48 5 -3 7 -12 3 -20 -3 -9 0 -21 6 -29 16 -19 16
-2183 0 -2202 -6 -8 -9 -20 -6 -28 3 -8 -1 -20 -9 -26 -8 -7 -14 -18 -14 -24
0 -7 -13 -25 -30 -41 -16 -16 -30 -35 -30 -42 0 -7 -6 -13 -14 -13 -7 0 -19
-7 -26 -15 -7 -9 -29 -23 -49 -32 -20 -9 -41 -20 -47 -25 -7 -5 -273 -8 -592
-8 -383 0 -583 -3 -587 -10 -3 -5 -23 -10 -44 -10 -71 0 -261 -121 -261 -166
0 -6 -7 -17 -15 -24 -19 -16 -45 -68 -45 -91 0 -10 -5 -21 -10 -24 -7 -4 -10
-218 -10 -627 0 -414 -3 -625 -10 -632 -5 -5 -10 -17 -10 -26 0 -46 -103 -190
-135 -190 -6 0 -22 -11 -34 -24 -13 -14 -29 -22 -37 -19 -8 3 -20 0 -28 -6
-10 -8 -289 -11 -1034 -11 -676 0 -1023 -3 -1027 -10 -3 -5 -19 -10 -34 -10
-59 0 -251 -142 -251 -186 0 -6 -9 -19 -20 -29 -11 -10 -20 -28 -20 -41 0 -13
-5 -26 -10 -29 -7 -4 -10 -354 -10 -1037 0 -733 -3 -1034 -11 -1044 -6 -7 -9
-24 -7 -37 1 -13 -3 -32 -11 -40 -7 -9 -11 -23 -8 -31 3 -8 -5 -24 -19 -37
-13 -12 -24 -27 -24 -33 0 -14 -41 -56 -55 -56 -6 0 -22 -11 -34 -24 -13 -14
-30 -22 -41 -19 -10 3 -21 0 -24 -6 -4 -6 -17 -11 -30 -11 -12 0 -27 -5 -32
-10 -15 -15 -1362 -14 -1380 1 -8 6 -20 9 -29 6 -8 -4 -17 -2 -20 3 -4 6 -25
19 -49 30 -23 10 -49 26 -56 35 -7 8 -19 15 -26 15 -8 0 -14 6 -14 14 0 7 -7
19 -15 26 -9 7 -23 29 -32 49 -9 20 -20 41 -25 47 -11 15 -11 2263 0 2278 5 6
16 28 26 48 9 20 21 40 27 44 6 3 14 17 19 30 5 13 20 28 33 33 12 5 29 16 36
25 7 9 19 16 26 16 7 0 18 6 25 14 6 8 18 12 26 9 8 -3 20 0 28 6 10 8 189 11
654 11 423 0 643 3 647 10 3 5 14 10 24 10 50 0 241 147 241 186 0 6 9 19 20
29 11 10 20 28 20 41 0 13 5 26 10 29 6 4 10 212 10 590 0 378 -4 586 -10 590
-5 3 -10 14 -10 24 0 49 -129 221 -166 221 -6 0 -19 9 -29 20 -10 11 -28 20
-41 20 -13 0 -26 5 -29 10 -3 6 -26 10 -50 10 -24 0 -47 5 -50 10 -4 7 -218
10 -627 10 -341 0 -625 3 -632 8 -6 4 -33 19 -61 32 -53 25 -115 77 -115 95 0
6 -11 22 -24 34 -14 13 -22 29 -19 37 3 8 0 20 -6 28 -13 16 -16 2242 -3 2260
5 6 16 27 25 47 9 20 23 42 32 49 8 7 15 19 15 26 0 8 6 14 14 14 7 0 19 7 26
15 7 9 33 25 56 35 24 11 45 24 49 30 3 5 12 7 20 3 9 -3 21 0 29 6 10 8 178
11 614 11 396 0 603 3 607 10 3 5 14 10 24 10 23 0 75 26 91 45 7 8 17 15 23
15 15 0 87 71 87 86 0 6 7 17 15 24 22 18 65 111 65 141 0 15 5 31 10 34 7 4
10 208 10 597 0 429 3 594 11 604 6 8 9 20 6 28 -3 8 1 20 9 26 8 7 14 18 14
24 0 19 102 111 142 130 20 9 40 20 43 25 3 5 13 7 23 4 10 -2 23 2 29 9 15
18 2138 15 2159 -3z"/>
      <path d="M14135 13870 c-3 -5 -19 -10 -34 -10 -59 0 -251 -142 -251 -186 0 -6
-9 -19 -20 -29 -11 -10 -20 -28 -20 -41 0 -13 -4 -26 -10 -29 -26 -16 -12
-1898 15 -1950 44 -88 204 -235 256 -235 10 0 21 -4 24 -10 4 -7 329 -10 944
-10 937 0 937 0 1006 35 110 55 235 197 235 266 0 10 5 21 10 24 7 4 10 323
10 925 0 602 -3 921 -10 925 -5 3 -10 16 -10 29 0 27 -24 79 -45 96 -8 7 -15
18 -15 24 0 15 -92 106 -106 106 -6 0 -19 9 -29 20 -10 11 -28 20 -41 20 -13
0 -26 5 -29 10 -3 6 -17 10 -30 10 -13 0 -27 5 -30 10 -4 7 -318 10 -910 10
-592 0 -906 -3 -910 -10z m1761 -91 c8 -6 25 -9 39 -7 14 3 30 -1 36 -8 6 -8
21 -14 34 -14 12 0 30 -9 40 -20 10 -11 23 -20 28 -20 15 0 57 -41 57 -56 0
-6 7 -17 15 -24 22 -18 45 -70 45 -101 0 -15 5 -31 10 -34 7 -4 10 -307 10
-875 0 -568 -3 -871 -10 -875 -5 -3 -10 -16 -10 -29 0 -62 -84 -174 -157 -207
-23 -10 -44 -23 -48 -29 -3 -5 -12 -7 -20 -3 -9 3 -21 0 -29 -6 -18 -15 -1785
-16 -1800 -1 -5 5 -18 10 -28 10 -42 0 -168 110 -194 170 -9 19 -20 43 -25 53
-13 24 -12 1818 1 1831 6 6 10 20 10 31 0 12 9 30 20 40 11 10 20 23 20 30 0
40 147 135 210 135 21 0 42 6 48 13 14 17 1678 13 1698 -4z"/>
    </g>
  </g>
</svg>
