<?xml version="1.0" encoding="UTF-8"?>
<!--
  Pellet mark — solid filled monogram P, vectorized from source bitmap.
  Centered on a 1024 canvas with safe padding for circle-cropped social avatars.
-->
<svg width="1024" height="1024" viewBox="0 0 1024 1024" xmlns="http://www.w3.org/2000/svg">
  <rect width="1024" height="1024" fill="#000000"/>
  <g transform="translate(229.7496, 112.6400) scale(3.838828)">
    <g transform="translate(-126.959124,304.016869) scale(0.100000,-0.100000)" fill="#ffffff" fill-rule="evenodd" stroke="none">
      <path d="M1707 3014 c-25 -25 -26 -29 -29 -181 -4 -207 0 -203 -201 -203 -144
0 -173 -7 -199 -44 -4 -6 -8 -132 -8 -279 0 -342 -16 -317 200 -317 224 0 220
4 220 -199 0 -190 6 -184 -217 -191 -222 -7 -203 23 -203 -322 0 -344 -19
-318 227 -318 247 0 233 -18 233 305 0 330 -24 305 295 305 319 0 304 -10 305
208 0 212 0 212 205 212 215 0 205 -16 205 320 0 337 11 320 -210 320 -216 0
-220 4 -220 225 0 198 22 185 -313 185 -264 0 -264 0 -290 -26z m517 -444 c49
-18 56 -51 56 -265 0 -288 13 -275 -280 -275 -287 0 -270 -18 -270 275 0 292
-16 275 264 275 112 0 216 -4 230 -10z"/>
    </g>
  </g>
</svg>
